<svg width="57" height="50" viewBox="0 0 57 50" fill="none" xmlns="http://www.w3.org/2000/svg">
<path d="M53 0C55.2091 0 57 1.79086 57 4V46C57 48.2091 55.2091 50 53 50H4C1.79086 50 0 48.2091 0 46V4C0 1.79086 1.79086 1.61064e-08 4 0H53ZM7 6C5.34315 6 4 7.34315 4 9V10H31C32.6569 10 34 11.3431 34 13V37C34 38.6569 32.6569 40 31 40H4V41C4 42.6569 5.34315 44 7 44H40C41.6569 44 43 42.6569 43 41V9C43 7.34315 41.6569 6 40 6H7ZM6 13C4.89543 13 4 13.8954 4 15V35C4 36.1046 4.89543 37 6 37H25C26.1046 37 27 36.1046 27 35V15C27 13.8954 26.1046 13 25 13H6ZM19 18.5C20.1046 18.5 21 19.3954 21 20.5V29.5C21 30.6046 20.1046 31.5 19 31.5H10C8.89543 31.5 8 30.6046 8 29.5V20.5C8 19.3954 8.89543 18.5 10 18.5H19Z" fill="#1787D6"/>
</svg>
