<svg xmlns="http://www.w3.org/2000/svg" xml:space="preserve" width="37.361mm" height="28.4867mm" version="1.0" style="shape-rendering:geometricPrecision; text-rendering:geometricPrecision; image-rendering:optimizeQuality; fill-rule:evenodd; clip-rule:evenodd" viewBox="0 0 163.56 124.71" xmlns:xlink="http://www.w3.org/1999/xlink"><defs><style type="text/css">
   <![CDATA[
    .fil0 {fill:#4E1DE0}
   ]]>
  </style></defs><g id="Layer_x0020_1"><metadata id="CorelCorpID_0Corel-Layer"></metadata><path class="fil0" d="M116.82 -0l-69.74 0c-1.72,0 -3.28,0.7 -4.41,1.84 -1.13,1.13 -1.83,2.69 -1.83,4.41l0 31.04c2.76,1.46 5.09,3.64 6.71,6.3 1.61,2.63 2.54,5.73 2.54,9.04 0,0.9 -0.07,1.78 -0.2,2.64 -0.11,0.7 -0.26,1.39 -0.45,2.07l7.07 0c0.35,-3.81 1.83,-7.27 4.08,-10.1 2.29,-2.87 5.38,-5.1 8.9,-6.4 -1.47,-1.52 -2.66,-3.3 -3.5,-5.27 -0.89,-2.09 -1.38,-4.38 -1.38,-6.78 0,-4.79 1.94,-9.12 5.08,-12.26 3.14,-3.14 7.47,-5.08 12.26,-5.08 4.79,0 9.12,1.94 12.26,5.08 3.14,3.14 5.08,7.48 5.08,12.26 0,2.4 -0.49,4.7 -1.38,6.78 -0.84,1.97 -2.03,3.76 -3.5,5.27 3.52,1.3 6.61,3.53 8.9,6.4 2.25,2.83 3.73,6.28 4.08,10.1l6.72 0c-0.19,-0.67 -0.34,-1.37 -0.45,-2.07 -0.13,-0.86 -0.2,-1.74 -0.2,-2.64 0,-3.38 0.97,-6.54 2.65,-9.21 1.69,-2.69 4.1,-4.88 6.95,-6.31l0 -30.86c0,-1.72 -0.7,-3.28 -1.84,-4.41 -1.13,-1.13 -2.69,-1.84 -4.41,-1.84zm-73.04 94.46l-14.86 27.35c-0.17,0.31 -0.25,0.64 -0.25,0.98 0,0.33 0.08,0.67 0.25,0.97 0.17,0.31 0.39,0.55 0.66,0.71 0.26,0.16 0.57,0.25 0.9,0.25l102.96 0c0.33,0 0.63,-0.09 0.89,-0.25 0.27,-0.16 0.49,-0.4 0.66,-0.71 0.17,-0.31 0.25,-0.64 0.25,-0.97 0,-0.33 -0.09,-0.67 -0.25,-0.98l-27.28 -50.19c-0.07,-0.12 -0.16,-0.22 -0.26,-0.28 -0.1,-0.06 -0.22,-0.09 -0.35,-0.09l-50.3 0c-0.13,0 -0.25,0.03 -0.34,0.09 -0.1,0.06 -0.19,0.16 -0.26,0.28l-12.41 22.84zm-16.66 -22.03c-2.01,-2.01 -4.78,-3.25 -7.85,-3.25 -3.06,0 -5.84,1.24 -7.85,3.25 -2.01,2.01 -3.25,4.78 -3.25,7.85 0,3.06 1.24,5.84 3.25,7.85 2.01,2.01 4.78,3.25 7.85,3.25 3.06,0 5.84,-1.24 7.85,-3.25 2.01,-2.01 3.25,-4.78 3.25,-7.85 0,-3.06 -1.24,-5.84 -3.25,-7.85zm117.16 -3.25c-3.06,0 -5.84,1.24 -7.85,3.25 -2.01,2.01 -3.25,4.78 -3.25,7.85 0,3.06 1.24,5.84 3.25,7.85 2.01,2.01 4.78,3.25 7.85,3.25 3.06,0 5.84,-1.24 7.85,-3.25 2.01,-2.01 3.25,-4.78 3.25,-7.85 0,-3.06 -1.24,-5.84 -3.25,-7.85 -2.01,-2.01 -4.78,-3.25 -7.85,-3.25zm-10.05 28.91c-1.44,0.5 -2.77,1.22 -3.95,2.11l10.28 17.8 20.86 0c0.59,0 1.12,-0.24 1.51,-0.63 0.39,-0.39 0.63,-0.92 0.63,-1.51l0 -5.3c0,-3.65 -1.57,-6.96 -4.1,-9.37 -2.54,-2.41 -6.04,-3.9 -9.89,-3.9l-10.56 0c-1.68,0 -3.28,0.28 -4.77,0.8zm-100.96 2.11c-1.18,-0.89 -2.51,-1.61 -3.95,-2.11 -1.49,-0.52 -3.1,-0.8 -4.77,-0.8l-10.56 0c-3.85,0 -7.36,1.5 -9.89,3.9 -2.53,2.4 -4.1,5.72 -4.1,9.37l0 5.3c0,0.59 0.24,1.12 0.63,1.51 0.39,0.39 0.92,0.63 1.51,0.63l20.86 0 10.28 -17.8zm53.96 -54.39l-10.56 0c-3.85,0 -7.36,1.5 -9.89,3.9 -2.53,2.4 -4.1,5.72 -4.1,9.37l0 4.84 38.55 0 0 -4.84c0,-3.65 -1.57,-6.96 -4.1,-9.37 -2.54,-2.41 -6.04,-3.9 -9.89,-3.9zm-16.38 -17.01c0,3.06 1.24,5.84 3.25,7.85 2.01,2.01 4.78,3.25 7.85,3.25 3.06,0 5.84,-1.24 7.85,-3.25 2.01,-2.01 3.25,-4.78 3.25,-7.85 0,-3.06 -1.24,-5.84 -3.25,-7.85 -2.01,-2.01 -4.78,-3.25 -7.85,-3.25 -3.06,0 -5.84,1.24 -7.85,3.25 -2.01,2.01 -3.25,4.78 -3.25,7.85zm48.89 41.17c-1.74,0.76 -3.3,1.85 -4.58,3.18l9.43 16.33 5.57 0c-0.96,-1.34 -1.73,-2.83 -2.28,-4.42 -0.61,-1.78 -0.95,-3.68 -0.95,-5.66 0,-2.11 0.38,-4.13 1.07,-6 0.62,-1.68 1.49,-3.24 2.57,-4.63l-5.05 0c-2.06,0 -4.02,0.43 -5.79,1.19zm-71.36 3.18c-1.28,-1.33 -2.83,-2.42 -4.58,-3.18 -1.76,-0.76 -3.72,-1.19 -5.79,-1.19l-5.05 0c1.08,1.39 1.95,2.95 2.57,4.63 0.69,1.87 1.07,3.89 1.07,6 0,1.98 -0.33,3.88 -0.95,5.66 -0.55,1.59 -1.32,3.08 -2.28,4.42l5.57 0 9.43 -16.33zm-7.79 -29.23c-2.01,-2.01 -4.78,-3.25 -7.85,-3.25 -3.06,0 -5.84,1.24 -7.85,3.25 -2.01,2.01 -3.25,4.78 -3.25,7.85 0,3.06 1.24,5.84 3.25,7.85 2.01,2.01 4.78,3.25 7.85,3.25 3.06,0 5.84,-1.24 7.85,-3.25 2.01,-2.01 3.25,-4.78 3.25,-7.85 0,-3.06 -1.24,-5.84 -3.25,-7.85zm90.22 -3.25c-3.06,0 -5.84,1.24 -7.85,3.25 -2.01,2.01 -3.25,4.78 -3.25,7.85 0,3.06 1.24,5.84 3.25,7.85 2.01,2.01 4.78,3.25 7.85,3.25 3.06,0 5.84,-1.24 7.85,-3.25 2.01,-2.01 3.25,-4.78 3.25,-7.85 0,-3.06 -1.24,-5.84 -3.25,-7.85 -2.01,-2.01 -4.78,-3.25 -7.85,-3.25z"></path></g></svg>