<svg width="512" height="512" viewBox="0 0 512 512" fill="none" xmlns="http://www.w3.org/2000/svg">
<path d="M365.33 0C446.334 3.29864e-05 512 65.6664 512 146.67V365.33C512 446.334 446.334 512 365.33 512H146.67C65.6664 512 3.2995e-05 446.334 0 365.33V146.67C3.2995e-05 65.6664 65.6664 4.1233e-05 146.67 0H365.33ZM318.805 123C295.204 123 273.004 132.566 256.403 149.308C240.003 132.566 217.002 123 193.802 123C145.401 123 106 162.462 106 210.494V288.62L231.003 389.667V327.285L156.601 263.109V210.295C156.601 189.966 173.401 173.225 193.802 173.225C214.202 173.225 231.003 189.966 231.003 210.295V276.463L281.604 317.52V210.494C281.604 190.165 298.404 173.424 318.805 173.424C339.405 173.424 356.005 190.165 356.005 210.494V333.264H406.606V210.494C406.606 162.263 367.005 123 318.805 123Z" fill="#FEFEFE"/>
</svg>
