<svg width="151" height="40" viewBox="0 0 151 40" fill="none" xmlns="http://www.w3.org/2000/svg">
<path d="M120.872 27.8692H126.877H137.603C140.944 27.8692 143.487 25.6659 143.487 20.7748C143.487 15.8838 140.944 13.6804 137.603 13.6804C134.261 13.6804 131.695 15.8838 131.695 20.7748C131.695 22.2276 131.913 23.4625 132.324 24.431H125.569C125.327 23.3172 125.182 22.1065 125.182 20.7748C125.182 11.7918 131.332 7.91767 137.627 7.91767C143.826 7.91767 150.073 11.7676 150.073 20.7748C150.073 29.7821 143.923 33.632 137.627 33.632H120.92V27.845L120.896 27.8692H120.872ZM15.1332 26.247V18.2082C15.1332 15.7385 13.0993 13.7046 10.6295 13.7046C8.15981 13.7046 6.12591 15.7385 6.12591 18.2082V24.6247L15.1332 32.4213V40L0 27.724V18.2324C0 12.3971 4.76997 7.60291 10.6295 7.60291C13.4383 7.60291 16.2228 8.76513 18.2082 10.799C20.2179 8.76513 22.9056 7.60291 25.7627 7.60291C31.5981 7.60291 36.3922 12.3729 36.3922 18.2324V33.1477H30.2663V18.2324C30.2663 15.7627 28.2567 13.7288 25.7627 13.7288C23.293 13.7288 21.2591 15.7627 21.2591 18.2324V31.2349L15.1332 26.247ZM74.1162 12.0581V0H67.2155V33.1235H74.1162V29.5642C75.0363 31.7191 77.6998 33.5835 81.3801 33.5835C86.5375 33.5835 92.1792 29.8789 92.1792 20.8232C92.1792 13.632 88.6198 9.83051 84.6005 8.54721C80.9927 7.4092 75.7869 8.18402 74.1404 12.0339V12.0581H74.1162ZM79.7094 27.845C76.707 27.845 73.8741 25.6174 73.8741 20.8232C73.8741 16.0291 76.707 13.8015 79.7094 13.8015C82.7603 13.8015 85.5932 16.0291 85.5932 20.8232C85.5932 25.6174 82.7603 27.845 79.7094 27.845ZM95.8596 33.0993H102.76V8.49879H95.8596V33.0993ZM114.794 14.4794H114.625V8.54721H107.724V33.1477H114.625V22.2518C114.625 16.3196 118.184 14.2615 121.889 14.2615C122.494 14.2615 123.075 14.3099 123.801 14.4068V8.54721C119.613 7.50605 115.86 9.87893 114.794 14.4794ZM44.7458 9.32203C42.4697 10.5085 41.1622 12.7119 41.1622 16.586L47.6755 16.5375C47.6755 13.8983 49.2736 13.1235 51.6949 13.1235C54.3826 13.1235 55.3753 14.1162 55.3753 16.8039C55.3753 18.4019 55.0121 18.9588 52.9298 19.2252L48.2082 19.8305C44.2373 20.3148 39.7337 21.5254 39.7337 26.8039C39.7337 31.7433 43.7046 33.6077 47.6755 33.6077C53.0508 33.6077 55.2058 30.0969 55.4964 28.862H55.7143V33.1477H62.276V16.1501C62.276 11.937 60.46 9.39467 56.1743 8.45036C52.9782 7.74818 47.5545 7.86925 44.77 9.32203L44.7458 9.34625V9.32203ZM50.2421 28.5956C45.7385 28.5956 44.8668 24.1162 49.9274 23.2203C51.3801 23.0024 54.4552 22.7845 55.3995 21.7676C55.3995 25.3027 55.3269 27.8935 50.2421 28.5956Z" fill="#710B28"/>
</svg>
